<svg width="20" height="20" viewBox="0 0 20 20" fill="none" xmlns="http://www.w3.org/2000/svg">
<path d="M9.56666 2.91581C9.60191 2.82983 9.66193 2.75629 9.7391 2.70452C9.81626 2.65276 9.90708 2.62512 10 2.62512C10.0929 2.62512 10.1837 2.65276 10.2609 2.70452C10.3381 2.75629 10.3981 2.82983 10.4333 2.91581L12.2042 7.17497C12.2373 7.25467 12.2918 7.32368 12.3616 7.3744C12.4315 7.42513 12.514 7.4556 12.6 7.46248L17.1983 7.83081C17.6142 7.86414 17.7825 8.38331 17.4658 8.65414L13.9625 11.6558C13.897 11.7118 13.8483 11.7847 13.8215 11.8666C13.7948 11.9485 13.7911 12.0361 13.8108 12.12L14.8817 16.6075C14.9032 16.6975 14.8975 16.7919 14.8655 16.8787C14.8334 16.9656 14.7763 17.0409 14.7014 17.0953C14.6265 17.1497 14.5371 17.1807 14.4446 17.1843C14.3521 17.188 14.2606 17.1641 14.1817 17.1158L10.2442 14.7116C10.1706 14.6667 10.0862 14.643 10 14.643C9.91384 14.643 9.82935 14.6667 9.75583 14.7116L5.81833 17.1166C5.73938 17.165 5.64787 17.1888 5.55538 17.1852C5.46288 17.1815 5.37354 17.1505 5.29864 17.0962C5.22373 17.0418 5.16663 16.9664 5.13454 16.8796C5.10245 16.7927 5.09681 16.6983 5.11833 16.6083L6.18916 12.12C6.20902 12.0361 6.20537 11.9485 6.17861 11.8666C6.15185 11.7847 6.10302 11.7117 6.0375 11.6558L2.53416 8.65414C2.46362 8.594 2.4125 8.51428 2.3873 8.42507C2.36209 8.33586 2.36393 8.24118 2.39257 8.15302C2.42122 8.06485 2.47538 7.98717 2.54821 7.92981C2.62103 7.87245 2.70924 7.838 2.80166 7.83081L7.4 7.46248C7.48604 7.4556 7.56851 7.42513 7.63835 7.3744C7.70819 7.32368 7.76268 7.25467 7.79583 7.17497L9.56666 2.91581Z" stroke="#1D1D1D" stroke-width="1.5" stroke-linecap="round" stroke-linejoin="round"/>
</svg>
