<svg width="18" height="18" viewBox="0 0 18 18" fill="none" xmlns="http://www.w3.org/2000/svg">
<path d="M3 13.9843V6.0407C3 3.90019 3 2.82994 3.65901 2.16497C4.31802 1.5 5.37868 1.5 7.5 1.5H10.5C12.6213 1.5 13.6819 1.5 14.341 2.16497C15 2.82994 15 3.90019 15 6.0407V13.9843C15 15.1181 15 15.685 14.6535 15.9081C14.0873 16.2728 13.2121 15.5081 12.7718 15.2305C12.4081 15.0011 12.2263 14.8864 12.0244 14.8798C11.8063 14.8726 11.6212 14.9826 11.2282 15.2305L9.795 16.1343C9.40838 16.378 9.2151 16.5 9 16.5C8.7849 16.5 8.59162 16.378 8.205 16.1343L6.77185 15.2305C6.40811 15.0011 6.22624 14.8864 6.0244 14.8798C5.80629 14.8726 5.6212 14.9826 5.22815 15.2305C4.78796 15.5081 3.91265 16.2728 3.34646 15.9081C3 15.685 3 15.1181 3 13.9843Z" stroke="#1D1D1D" stroke-width="1.5" stroke-linecap="round" stroke-linejoin="round"/>
<path d="M8.25 8.25H6" stroke="#1D1D1D" stroke-width="1.5" stroke-linecap="round" stroke-linejoin="round"/>
<path d="M10.5 5.25H6" stroke="#1D1D1D" stroke-width="1.5" stroke-linecap="round" stroke-linejoin="round"/>
</svg>
