<svg width="36" height="36" viewBox="0 0 36 36" fill="none" xmlns="http://www.w3.org/2000/svg">
<rect x="0.5" y="0.5" width="35" height="35" rx="9.5" fill="white"/>
<rect x="0.5" y="0.5" width="35" height="35" rx="9.5" stroke="#D1D5DB"/>
<path d="M18 18.75C18.4142 18.75 18.75 18.4142 18.75 18C18.75 17.5858 18.4142 17.25 18 17.25C17.5858 17.25 17.25 17.5858 17.25 18C17.25 18.4142 17.5858 18.75 18 18.75Z" stroke="#1D1D1D" stroke-width="1.5" stroke-linecap="round" stroke-linejoin="round"/>
<path d="M18 13.5C18.4142 13.5 18.75 13.1642 18.75 12.75C18.75 12.3358 18.4142 12 18 12C17.5858 12 17.25 12.3358 17.25 12.75C17.25 13.1642 17.5858 13.5 18 13.5Z" stroke="#1D1D1D" stroke-width="1.5" stroke-linecap="round" stroke-linejoin="round"/>
<path d="M18 24C18.4142 24 18.75 23.6642 18.75 23.25C18.75 22.8358 18.4142 22.5 18 22.5C17.5858 22.5 17.25 22.8358 17.25 23.25C17.25 23.6642 17.5858 24 18 24Z" stroke="#1D1D1D" stroke-width="1.5" stroke-linecap="round" stroke-linejoin="round"/>
</svg>
