<svg width="18" height="18" viewBox="0 0 18 18" fill="none" xmlns="http://www.w3.org/2000/svg">
<path d="M7.875 6H13.875M7.875 9H9.75M13.875 9H12M7.875 12H9.75M13.875 12H12" stroke="#1D1D1D" stroke-width="1.5" stroke-linecap="round" stroke-linejoin="round"/>
<path d="M5.25 5.625H4.5C3.08579 5.625 2.37868 5.625 1.93934 6.06434C1.5 6.50368 1.5 7.21079 1.5 8.625V13.5C1.5 14.5355 2.33947 15.375 3.375 15.375C4.41053 15.375 5.25 14.5355 5.25 13.5V5.625Z" stroke="#1D1D1D" stroke-width="1.5" stroke-linecap="round" stroke-linejoin="round"/>
<path d="M12 2.625H8.25C7.5525 2.625 7.20378 2.625 6.91766 2.70167C6.1412 2.90972 5.53472 3.5162 5.32667 4.29265C5.25 4.57878 5.25 4.92752 5.25 5.625V13.5C5.25 14.5355 4.41053 15.375 3.375 15.375H12C14.1213 15.375 15.1819 15.375 15.841 14.716C16.5 14.0569 16.5 12.9963 16.5 10.875V7.125C16.5 5.00368 16.5 3.94302 15.841 3.28401C15.1819 2.625 14.1213 2.625 12 2.625Z" stroke="#1D1D1D" stroke-width="1.5" stroke-linecap="round" stroke-linejoin="round"/>
</svg>
