<svg width="18" height="18" viewBox="0 0 18 18" fill="none" xmlns="http://www.w3.org/2000/svg">
<g clip-path="url(#clip0_7012_3627)">
<path d="M12 10.5C12 11.1213 12.5037 11.625 13.125 11.625C13.7463 11.625 14.25 11.1213 14.25 10.5C14.25 9.8787 13.7463 9.375 13.125 9.375C12.5037 9.375 12 9.8787 12 10.5Z" stroke="#1D1D1D" stroke-width="1.5"/>
<path d="M14.175 6C14.2242 5.75767 14.25 5.50685 14.25 5.25C14.25 3.17893 12.571 1.5 10.5 1.5C8.42895 1.5 6.75 3.17893 6.75 5.25C6.75 5.50685 6.77582 5.75767 6.82502 6" stroke="#1D1D1D" stroke-width="1.5"/>
<path d="M5.25 5.99493H12C14.1213 5.99493 15.1819 5.99493 15.841 6.65426C16.5 7.31359 16.5 8.37473 16.5 10.4971V11.9978C16.5 14.1202 16.5 15.1813 15.841 15.8407C15.1819 16.5 14.1213 16.5 12 16.5H7.5C4.67157 16.5 3.25736 16.5 2.37868 15.6209C1.5 14.7418 1.5 13.3269 1.5 10.4971V8.9964C1.5 6.16658 1.5 4.75169 2.37868 3.87258C3.086 3.16493 4.14032 3.02692 6 3H7.5" stroke="#1D1D1D" stroke-width="1.5" stroke-linecap="round"/>
</g>
<defs>
<clipPath id="clip0_7012_3627">
<rect width="18" height="18" fill="white"/>
</clipPath>
</defs>
</svg>
